<svg width="206" height="29" viewBox="0 0 206 29" xmlns="http://www.w3.org/2000/svg">
<path d="M17.748 25.6567V28.3867H0.9V1.08672H4.176V25.6567H17.748ZM27.0443 24.7987L32.1923 8.88672H35.4293L28.6433 28.3867H24.8993L18.1133 8.88672H21.3503L26.4983 24.7987C26.6283 25.1887 26.6933 25.5007 26.6933 25.7347H26.8493C26.8493 25.5007 26.9143 25.1887 27.0443 24.7987ZM41.772 28.3867H38.496V8.88672H41.772V28.3867ZM42.123 2.80272V3.11472C42.123 3.60872 42.097 3.92072 42.045 4.05072C42.019 4.18072 41.902 4.33672 41.694 4.51872C41.486 4.72672 41.005 4.83072 40.251 4.83072H40.056C39.484 4.83072 39.133 4.81772 39.003 4.79172C38.873 4.76572 38.717 4.67472 38.535 4.51872C38.353 4.33672 38.236 4.18072 38.184 4.05072C38.158 3.92072 38.145 3.60872 38.145 3.11472V2.80272C38.145 2.30872 38.158 1.99672 38.184 1.86672C38.236 1.73672 38.366 1.58072 38.574 1.39872C38.73 1.24272 38.873 1.15172 39.003 1.12572C39.133 1.09972 39.484 1.08672 40.056 1.08672H40.212C40.992 1.08672 41.499 1.19072 41.733 1.39872C41.915 1.58072 42.019 1.73672 42.045 1.86672C42.097 1.99672 42.123 2.30872 42.123 2.80272ZM53.7806 24.7987L58.9286 8.88672H62.1656L55.3796 28.3867H51.6356L44.8496 8.88672H48.0866L53.2346 24.7987C53.3646 25.1887 53.4296 25.5007 53.4296 25.7347H53.5856C53.5856 25.5007 53.6506 25.1887 53.7806 24.7987ZM85.4733 14.3467V24.8767C85.4733 25.3967 85.4213 25.7607 85.3173 25.9687C85.2393 26.1767 85.0443 26.4497 84.7323 26.7877L84.0303 27.4897C83.4323 28.0877 82.8213 28.3867 82.1973 28.3867H69.3273C68.7033 28.3867 68.0923 28.0877 67.4943 27.4897L66.7923 26.7877C66.5843 26.5537 66.4283 26.3847 66.3243 26.2807C66.2463 26.1507 66.1813 25.9817 66.1293 25.7737C66.0773 25.5397 66.0513 25.2407 66.0513 24.8767V16.5307C66.0513 15.9067 66.0773 15.5167 66.1293 15.3607C66.2073 15.2047 66.4413 14.9707 66.8313 14.6587L68.4303 13.3327C68.8723 12.9687 69.2233 12.7867 69.4833 12.7867H71.0433V12.6307C70.7053 12.6047 70.3543 12.4097 69.9903 12.0457L68.8593 11.1097C68.5213 10.8497 68.3133 10.6547 68.2353 10.5247C68.1833 10.3947 68.1573 10.1087 68.1573 9.66672V4.59672C68.1573 3.81672 68.4693 3.16672 69.0933 2.64672L70.0293 1.86672C70.6533 1.34672 71.2773 1.08672 71.9013 1.08672H80.7153C81.3393 1.08672 81.9633 1.34672 82.5873 1.86672L83.5233 2.64672C84.1473 3.16672 84.4593 3.81672 84.4593 4.59672V6.15672H81.1833V5.41572C81.1833 5.02572 81.1573 4.77872 81.1053 4.67472C81.0793 4.54472 80.9493 4.38872 80.7153 4.20672C80.4813 4.02472 80.2993 3.92072 80.1693 3.89472C80.0393 3.84272 79.7273 3.81672 79.2333 3.81672H73.3443C72.8763 3.81672 72.5773 3.84272 72.4473 3.89472C72.3173 3.92072 72.1353 4.02472 71.9013 4.20672C71.6673 4.38872 71.5243 4.54472 71.4723 4.67472C71.4463 4.77872 71.4333 5.02572 71.4333 5.41572V9.08172C71.4333 9.57572 71.4593 9.90072 71.5113 10.0567C71.5893 10.1867 71.8233 10.4077 72.2133 10.7197C72.7073 11.1357 73.0713 11.3957 73.3053 11.4997C73.5393 11.5777 73.9683 11.6167 74.5923 11.6167H88.2813V14.3467H85.4733ZM71.2383 25.6567H80.2863C80.7543 25.6567 81.0533 25.6437 81.1833 25.6177C81.3133 25.5657 81.4953 25.4487 81.7293 25.2667C81.9633 25.0847 82.0933 24.9417 82.1193 24.8377C82.1713 24.7077 82.1973 24.4477 82.1973 24.0577V14.3467H72.4083C71.9143 14.3467 71.5893 14.3727 71.4333 14.4247C71.2773 14.4767 71.0043 14.6717 70.6143 15.0097L70.0293 15.5167C69.5613 15.9327 69.3273 16.4267 69.3273 16.9987V24.0577C69.3273 24.4477 69.3403 24.7077 69.3663 24.8377C69.4183 24.9417 69.5613 25.0847 69.7953 25.2667C70.0293 25.4487 70.2113 25.5657 70.3413 25.6177C70.4713 25.6437 70.7703 25.6567 71.2383 25.6567ZM113.609 6.15672H110.333V5.41572C110.333 5.02572 110.307 4.77872 110.255 4.67472C110.229 4.54472 110.099 4.38872 109.865 4.20672C109.631 4.02472 109.449 3.92072 109.319 3.89472C109.189 3.84272 108.89 3.81672 108.422 3.81672H98.7501C98.2821 3.81672 97.9831 3.84272 97.8531 3.89472C97.7231 3.92072 97.5411 4.02472 97.3071 4.20672C97.0731 4.38872 96.9301 4.54472 96.8781 4.67472C96.8521 4.77872 96.8391 5.02572 96.8391 5.41572V24.0577C96.8391 24.4477 96.8521 24.7077 96.8781 24.8377C96.9301 24.9417 97.0731 25.0847 97.3071 25.2667C97.5411 25.4487 97.7231 25.5657 97.8531 25.6177C97.9831 25.6437 98.2821 25.6567 98.7501 25.6567H108.422C108.89 25.6567 109.189 25.6437 109.319 25.6177C109.449 25.5657 109.631 25.4487 109.865 25.2667C110.099 25.0847 110.229 24.9417 110.255 24.8377C110.307 24.7077 110.333 24.4477 110.333 24.0577V23.3167H113.609V24.8767C113.609 25.6567 113.297 26.3067 112.673 26.8267L111.737 27.6067C111.113 28.1267 110.489 28.3867 109.865 28.3867H97.3071C96.6831 28.3867 96.0591 28.1267 95.4351 27.6067L94.4991 26.8267C93.8751 26.3067 93.5631 25.6567 93.5631 24.8767V4.59672C93.5631 3.81672 93.8751 3.16672 94.4991 2.64672L95.4351 1.86672C96.0591 1.34672 96.6831 1.08672 97.3071 1.08672H109.865C110.489 1.08672 111.113 1.34672 111.737 1.86672L112.673 2.64672C113.297 3.16672 113.609 3.81672 113.609 4.59672V6.15672ZM121.646 8.88672H131.006C131.63 8.88672 132.254 9.14672 132.878 9.66672L133.814 10.4467C134.438 10.9667 134.75 11.6167 134.75 12.3967V24.8767C134.75 25.6567 134.438 26.3067 133.814 26.8267L132.878 27.6067C132.254 28.1267 131.63 28.3867 131.006 28.3867H121.646C121.022 28.3867 120.398 28.1267 119.774 27.6067L118.838 26.8267C118.214 26.3067 117.902 25.6567 117.902 24.8767V12.3967C117.902 11.6167 118.214 10.9667 118.838 10.4467L119.774 9.66672C120.398 9.14672 121.022 8.88672 121.646 8.88672ZM131.474 24.0577V13.2157C131.474 12.8257 131.448 12.5787 131.396 12.4747C131.37 12.3447 131.24 12.1887 131.006 12.0067C130.772 11.8247 130.59 11.7207 130.46 11.6947C130.33 11.6427 130.031 11.6167 129.563 11.6167H123.089C122.621 11.6167 122.322 11.6427 122.192 11.6947C122.062 11.7207 121.88 11.8247 121.646 12.0067C121.412 12.1887 121.269 12.3447 121.217 12.4747C121.191 12.5787 121.178 12.8257 121.178 13.2157V24.0577C121.178 24.4477 121.191 24.7077 121.217 24.8377C121.269 24.9417 121.412 25.0847 121.646 25.2667C121.88 25.4487 122.062 25.5657 122.192 25.6177C122.322 25.6437 122.621 25.6567 123.089 25.6567H129.563C130.031 25.6567 130.33 25.6437 130.46 25.6177C130.59 25.5657 130.772 25.4487 131.006 25.2667C131.24 25.0847 131.37 24.9417 131.396 24.8377C131.448 24.7077 131.474 24.4477 131.474 24.0577ZM141.291 11.6167H139.185C138.847 11.3567 138.639 11.1617 138.561 11.0317C138.509 10.8757 138.483 10.4987 138.483 9.90072V8.88672H141.291V3.97272C141.291 3.19272 141.603 2.54272 142.227 2.02272L143.163 1.24272C143.787 0.722718 144.411 0.462718 145.035 0.462718H149.715C150.053 0.722718 150.248 0.930717 150.3 1.08672C150.378 1.21672 150.417 1.58072 150.417 2.17872V3.19272H146.244C145.75 3.19272 145.347 3.32272 145.035 3.58272C144.801 3.76472 144.658 3.92072 144.606 4.05072C144.58 4.15472 144.567 4.40172 144.567 4.79172V8.88672H148.935C149.273 9.14672 149.468 9.35472 149.52 9.51072C149.598 9.64072 149.637 10.0047 149.637 10.6027V11.6167H144.567V28.3867H141.291V11.6167ZM155.193 11.6167H153.087C152.749 11.3567 152.541 11.1617 152.463 11.0317C152.411 10.8757 152.385 10.4987 152.385 9.90072V8.88672H155.193V3.97272C155.193 3.19272 155.505 2.54272 156.129 2.02272L157.065 1.24272C157.689 0.722718 158.313 0.462718 158.937 0.462718H163.617C163.955 0.722718 164.15 0.930717 164.202 1.08672C164.28 1.21672 164.319 1.58072 164.319 2.17872V3.19272H160.146C159.652 3.19272 159.249 3.32272 158.937 3.58272C158.703 3.76472 158.56 3.92072 158.508 4.05072C158.482 4.15472 158.469 4.40172 158.469 4.79172V8.88672H162.837C163.175 9.14672 163.37 9.35472 163.422 9.51072C163.5 9.64072 163.539 10.0047 163.539 10.6027V11.6167H158.469V28.3867H155.193V11.6167ZM181.925 24.8767L184.265 26.8267L183.329 27.6067C182.861 27.9967 182.536 28.2307 182.354 28.3087C182.198 28.3607 181.886 28.3867 181.418 28.3867H171.005C170.381 28.3867 169.757 28.1267 169.133 27.6067L168.197 26.8267C167.573 26.3067 167.261 25.6567 167.261 24.8767V12.3967C167.261 11.6167 167.573 10.9667 168.197 10.4467L169.133 9.66672C169.757 9.14672 170.381 8.88672 171.005 8.88672H180.092C180.612 8.88672 181.236 9.14672 181.964 9.66672L182.939 10.4467C183.563 10.9147 183.875 11.5647 183.875 12.3967V20.3917H170.537V24.0577C170.537 24.4477 170.55 24.7077 170.576 24.8377C170.628 24.9417 170.771 25.0847 171.005 25.2667C171.239 25.4487 171.421 25.5657 171.551 25.6177C171.681 25.6437 171.98 25.6567 172.448 25.6567H180.014C180.482 25.6567 180.794 25.6307 180.95 25.5787C181.132 25.5007 181.457 25.2667 181.925 24.8767ZM180.599 17.8567V13.2157C180.599 12.8257 180.573 12.5787 180.521 12.4747C180.495 12.3447 180.365 12.1887 180.131 12.0067C179.897 11.8247 179.715 11.7207 179.585 11.6947C179.455 11.6427 179.156 11.6167 178.688 11.6167H172.448C171.98 11.6167 171.681 11.6427 171.551 11.6947C171.421 11.7207 171.239 11.8247 171.005 12.0067C170.771 12.1887 170.628 12.3447 170.576 12.4747C170.55 12.5787 170.537 12.8257 170.537 13.2157V17.8567H180.599ZM203.215 24.8767L205.555 26.8267L204.619 27.6067C204.151 27.9967 203.826 28.2307 203.644 28.3087C203.488 28.3607 203.176 28.3867 202.708 28.3867H192.295C191.671 28.3867 191.047 28.1267 190.423 27.6067L189.487 26.8267C188.863 26.3067 188.551 25.6567 188.551 24.8767V12.3967C188.551 11.6167 188.863 10.9667 189.487 10.4467L190.423 9.66672C191.047 9.14672 191.671 8.88672 192.295 8.88672H201.382C201.902 8.88672 202.526 9.14672 203.254 9.66672L204.229 10.4467C204.853 10.9147 205.165 11.5647 205.165 12.3967V20.3917H191.827V24.0577C191.827 24.4477 191.84 24.7077 191.866 24.8377C191.918 24.9417 192.061 25.0847 192.295 25.2667C192.529 25.4487 192.711 25.5657 192.841 25.6177C192.971 25.6437 193.27 25.6567 193.738 25.6567H201.304C201.772 25.6567 202.084 25.6307 202.24 25.5787C202.422 25.5007 202.747 25.2667 203.215 24.8767ZM201.889 17.8567V13.2157C201.889 12.8257 201.863 12.5787 201.811 12.4747C201.785 12.3447 201.655 12.1887 201.421 12.0067C201.187 11.8247 201.005 11.7207 200.875 11.6947C200.745 11.6427 200.446 11.6167 199.978 11.6167H193.738C193.27 11.6167 192.971 11.6427 192.841 11.6947C192.711 11.7207 192.529 11.8247 192.295 12.0067C192.061 12.1887 191.918 12.3447 191.866 12.4747C191.84 12.5787 191.827 12.8257 191.827 13.2157V17.8567H201.889Z" fill="black"/>
</svg>
