<svg width="206" height="28" viewBox="0 0 206 28" xmlns="http://www.w3.org/2000/svg">
<path d="M17.748 25.27V28H0.9V0.699998H4.176V25.27H17.748ZM27.0443 24.412L32.1923 8.5H35.4293L28.6433 28H24.8993L18.1133 8.5H21.3503L26.4983 24.412C26.6283 24.802 26.6933 25.114 26.6933 25.348H26.8493C26.8493 25.114 26.9143 24.802 27.0443 24.412ZM41.772 28H38.496V8.5H41.772V28ZM42.123 2.416V2.728C42.123 3.222 42.097 3.534 42.045 3.664C42.019 3.794 41.902 3.95 41.694 4.132C41.486 4.34 41.005 4.444 40.251 4.444H40.056C39.484 4.444 39.133 4.431 39.003 4.405C38.873 4.379 38.717 4.288 38.535 4.132C38.353 3.95 38.236 3.794 38.184 3.664C38.158 3.534 38.145 3.222 38.145 2.728V2.416C38.145 1.922 38.158 1.61 38.184 1.48C38.236 1.35 38.366 1.194 38.574 1.012C38.73 0.855999 38.873 0.764999 39.003 0.738998C39.133 0.712998 39.484 0.699998 40.056 0.699998H40.212C40.992 0.699998 41.499 0.803998 41.733 1.012C41.915 1.194 42.019 1.35 42.045 1.48C42.097 1.61 42.123 1.922 42.123 2.416ZM53.7806 24.412L58.9286 8.5H62.1656L55.3796 28H51.6356L44.8496 8.5H48.0866L53.2346 24.412C53.3646 24.802 53.4296 25.114 53.4296 25.348H53.5856C53.5856 25.114 53.6506 24.802 53.7806 24.412ZM85.4733 13.96V24.49C85.4733 25.01 85.4213 25.374 85.3173 25.582C85.2393 25.79 85.0443 26.063 84.7323 26.401L84.0303 27.103C83.4323 27.701 82.8213 28 82.1973 28H69.3273C68.7033 28 68.0923 27.701 67.4943 27.103L66.7923 26.401C66.5843 26.167 66.4283 25.998 66.3243 25.894C66.2463 25.764 66.1813 25.595 66.1293 25.387C66.0773 25.153 66.0513 24.854 66.0513 24.49V16.144C66.0513 15.52 66.0773 15.13 66.1293 14.974C66.2073 14.818 66.4413 14.584 66.8313 14.272L68.4303 12.946C68.8723 12.582 69.2233 12.4 69.4833 12.4H71.0433V12.244C70.7053 12.218 70.3543 12.023 69.9903 11.659L68.8593 10.723C68.5213 10.463 68.3133 10.268 68.2353 10.138C68.1833 10.008 68.1573 9.722 68.1573 9.28V4.21C68.1573 3.43 68.4693 2.78 69.0933 2.26L70.0293 1.48C70.6533 0.959999 71.2773 0.699998 71.9013 0.699998H80.7153C81.3393 0.699998 81.9633 0.959999 82.5873 1.48L83.5233 2.26C84.1473 2.78 84.4593 3.43 84.4593 4.21V5.77H81.1833V5.029C81.1833 4.639 81.1573 4.392 81.1053 4.288C81.0793 4.158 80.9493 4.002 80.7153 3.82C80.4813 3.638 80.2993 3.534 80.1693 3.508C80.0393 3.456 79.7273 3.43 79.2333 3.43H73.3443C72.8763 3.43 72.5773 3.456 72.4473 3.508C72.3173 3.534 72.1353 3.638 71.9013 3.82C71.6673 4.002 71.5243 4.158 71.4723 4.288C71.4463 4.392 71.4333 4.639 71.4333 5.029V8.695C71.4333 9.189 71.4593 9.514 71.5113 9.67C71.5893 9.8 71.8233 10.021 72.2133 10.333C72.7073 10.749 73.0713 11.009 73.3053 11.113C73.5393 11.191 73.9683 11.23 74.5923 11.23H88.2813V13.96H85.4733ZM71.2383 25.27H80.2863C80.7543 25.27 81.0533 25.257 81.1833 25.231C81.3133 25.179 81.4953 25.062 81.7293 24.88C81.9633 24.698 82.0933 24.555 82.1193 24.451C82.1713 24.321 82.1973 24.061 82.1973 23.671V13.96H72.4083C71.9143 13.96 71.5893 13.986 71.4333 14.038C71.2773 14.09 71.0043 14.285 70.6143 14.623L70.0293 15.13C69.5613 15.546 69.3273 16.04 69.3273 16.612V23.671C69.3273 24.061 69.3403 24.321 69.3663 24.451C69.4183 24.555 69.5613 24.698 69.7953 24.88C70.0293 25.062 70.2113 25.179 70.3413 25.231C70.4713 25.257 70.7703 25.27 71.2383 25.27ZM113.609 5.77H110.333V5.029C110.333 4.639 110.307 4.392 110.255 4.288C110.229 4.158 110.099 4.002 109.865 3.82C109.631 3.638 109.449 3.534 109.319 3.508C109.189 3.456 108.89 3.43 108.422 3.43H98.7501C98.2821 3.43 97.9831 3.456 97.8531 3.508C97.7231 3.534 97.5411 3.638 97.3071 3.82C97.0731 4.002 96.9301 4.158 96.8781 4.288C96.8521 4.392 96.8391 4.639 96.8391 5.029V23.671C96.8391 24.061 96.8521 24.321 96.8781 24.451C96.9301 24.555 97.0731 24.698 97.3071 24.88C97.5411 25.062 97.7231 25.179 97.8531 25.231C97.9831 25.257 98.2821 25.27 98.7501 25.27H108.422C108.89 25.27 109.189 25.257 109.319 25.231C109.449 25.179 109.631 25.062 109.865 24.88C110.099 24.698 110.229 24.555 110.255 24.451C110.307 24.321 110.333 24.061 110.333 23.671V22.93H113.609V24.49C113.609 25.27 113.297 25.92 112.673 26.44L111.737 27.22C111.113 27.74 110.489 28 109.865 28H97.3071C96.6831 28 96.0591 27.74 95.4351 27.22L94.4991 26.44C93.8751 25.92 93.5631 25.27 93.5631 24.49V4.21C93.5631 3.43 93.8751 2.78 94.4991 2.26L95.4351 1.48C96.0591 0.959999 96.6831 0.699998 97.3071 0.699998H109.865C110.489 0.699998 111.113 0.959999 111.737 1.48L112.673 2.26C113.297 2.78 113.609 3.43 113.609 4.21V5.77ZM121.646 8.5H131.006C131.63 8.5 132.254 8.76 132.878 9.28L133.814 10.06C134.438 10.58 134.75 11.23 134.75 12.01V24.49C134.75 25.27 134.438 25.92 133.814 26.44L132.878 27.22C132.254 27.74 131.63 28 131.006 28H121.646C121.022 28 120.398 27.74 119.774 27.22L118.838 26.44C118.214 25.92 117.902 25.27 117.902 24.49V12.01C117.902 11.23 118.214 10.58 118.838 10.06L119.774 9.28C120.398 8.76 121.022 8.5 121.646 8.5ZM131.474 23.671V12.829C131.474 12.439 131.448 12.192 131.396 12.088C131.37 11.958 131.24 11.802 131.006 11.62C130.772 11.438 130.59 11.334 130.46 11.308C130.33 11.256 130.031 11.23 129.563 11.23H123.089C122.621 11.23 122.322 11.256 122.192 11.308C122.062 11.334 121.88 11.438 121.646 11.62C121.412 11.802 121.269 11.958 121.217 12.088C121.191 12.192 121.178 12.439 121.178 12.829V23.671C121.178 24.061 121.191 24.321 121.217 24.451C121.269 24.555 121.412 24.698 121.646 24.88C121.88 25.062 122.062 25.179 122.192 25.231C122.322 25.257 122.621 25.27 123.089 25.27H129.563C130.031 25.27 130.33 25.257 130.46 25.231C130.59 25.179 130.772 25.062 131.006 24.88C131.24 24.698 131.37 24.555 131.396 24.451C131.448 24.321 131.474 24.061 131.474 23.671ZM141.291 11.23H139.185C138.847 10.97 138.639 10.775 138.561 10.645C138.509 10.489 138.483 10.112 138.483 9.514V8.5H141.291V3.586C141.291 2.806 141.603 2.156 142.227 1.636L143.163 0.855998C143.787 0.335999 144.411 0.0759992 145.035 0.0759992H149.715C150.053 0.335999 150.248 0.543999 150.3 0.699998C150.378 0.829998 150.417 1.194 150.417 1.792V2.806H146.244C145.75 2.806 145.347 2.936 145.035 3.196C144.801 3.378 144.658 3.534 144.606 3.664C144.58 3.768 144.567 4.015 144.567 4.405V8.5H148.935C149.273 8.76 149.468 8.968 149.52 9.124C149.598 9.254 149.637 9.618 149.637 10.216V11.23H144.567V28H141.291V11.23ZM155.193 11.23H153.087C152.749 10.97 152.541 10.775 152.463 10.645C152.411 10.489 152.385 10.112 152.385 9.514V8.5H155.193V3.586C155.193 2.806 155.505 2.156 156.129 1.636L157.065 0.855998C157.689 0.335999 158.313 0.0759992 158.937 0.0759992H163.617C163.955 0.335999 164.15 0.543999 164.202 0.699998C164.28 0.829998 164.319 1.194 164.319 1.792V2.806H160.146C159.652 2.806 159.249 2.936 158.937 3.196C158.703 3.378 158.56 3.534 158.508 3.664C158.482 3.768 158.469 4.015 158.469 4.405V8.5H162.837C163.175 8.76 163.37 8.968 163.422 9.124C163.5 9.254 163.539 9.618 163.539 10.216V11.23H158.469V28H155.193V11.23ZM181.925 24.49L184.265 26.44L183.329 27.22C182.861 27.61 182.536 27.844 182.354 27.922C182.198 27.974 181.886 28 181.418 28H171.005C170.381 28 169.757 27.74 169.133 27.22L168.197 26.44C167.573 25.92 167.261 25.27 167.261 24.49V12.01C167.261 11.23 167.573 10.58 168.197 10.06L169.133 9.28C169.757 8.76 170.381 8.5 171.005 8.5H180.092C180.612 8.5 181.236 8.76 181.964 9.28L182.939 10.06C183.563 10.528 183.875 11.178 183.875 12.01V20.005H170.537V23.671C170.537 24.061 170.55 24.321 170.576 24.451C170.628 24.555 170.771 24.698 171.005 24.88C171.239 25.062 171.421 25.179 171.551 25.231C171.681 25.257 171.98 25.27 172.448 25.27H180.014C180.482 25.27 180.794 25.244 180.95 25.192C181.132 25.114 181.457 24.88 181.925 24.49ZM180.599 17.47V12.829C180.599 12.439 180.573 12.192 180.521 12.088C180.495 11.958 180.365 11.802 180.131 11.62C179.897 11.438 179.715 11.334 179.585 11.308C179.455 11.256 179.156 11.23 178.688 11.23H172.448C171.98 11.23 171.681 11.256 171.551 11.308C171.421 11.334 171.239 11.438 171.005 11.62C170.771 11.802 170.628 11.958 170.576 12.088C170.55 12.192 170.537 12.439 170.537 12.829V17.47H180.599ZM203.215 24.49L205.555 26.44L204.619 27.22C204.151 27.61 203.826 27.844 203.644 27.922C203.488 27.974 203.176 28 202.708 28H192.295C191.671 28 191.047 27.74 190.423 27.22L189.487 26.44C188.863 25.92 188.551 25.27 188.551 24.49V12.01C188.551 11.23 188.863 10.58 189.487 10.06L190.423 9.28C191.047 8.76 191.671 8.5 192.295 8.5H201.382C201.902 8.5 202.526 8.76 203.254 9.28L204.229 10.06C204.853 10.528 205.165 11.178 205.165 12.01V20.005H191.827V23.671C191.827 24.061 191.84 24.321 191.866 24.451C191.918 24.555 192.061 24.698 192.295 24.88C192.529 25.062 192.711 25.179 192.841 25.231C192.971 25.257 193.27 25.27 193.738 25.27H201.304C201.772 25.27 202.084 25.244 202.24 25.192C202.422 25.114 202.747 24.88 203.215 24.49ZM201.889 17.47V12.829C201.889 12.439 201.863 12.192 201.811 12.088C201.785 11.958 201.655 11.802 201.421 11.62C201.187 11.438 201.005 11.334 200.875 11.308C200.745 11.256 200.446 11.23 199.978 11.23H193.738C193.27 11.23 192.971 11.256 192.841 11.308C192.711 11.334 192.529 11.438 192.295 11.62C192.061 11.802 191.918 11.958 191.866 12.088C191.84 12.192 191.827 12.439 191.827 12.829V17.47H201.889Z" fill="#F3ECA7"/>
</svg>
