<svg width="50" height="50" viewBox="0 0 50 50" fill="none" xmlns="http://www.w3.org/2000/svg">
<path d="M25 0.78125C11.6203 0.78125 0.78125 11.6219 0.78125 25C0.78125 38.3781 11.6219 49.2188 25 49.2188C38.3797 49.2188 49.2188 38.3781 49.2188 25C49.2188 11.6219 38.3781 0.78125 25 0.78125ZM36.8953 17.3734L32.9203 36.1047C32.6266 37.4328 31.8359 37.7547 30.7328 37.1297L24.6781 32.6672L21.7578 35.4797C21.4359 35.8016 21.1625 36.075 20.5375 36.075L20.9672 29.9125L32.1875 19.775C32.6766 19.3453 32.0797 19.1016 31.4344 19.5312L17.5672 28.2609L11.5906 26.3953C10.2922 25.9859 10.2625 25.0969 11.8641 24.4719L35.2141 15.4672C36.2984 15.0766 37.2453 15.7312 36.8937 17.3719L36.8953 17.3734Z" fill="#E5DCA1"/>
</svg>
