<svg width="50" height="50" viewBox="0 0 50 50" fill="none" xmlns="http://www.w3.org/2000/svg">
<path d="M24.4994 0.902527C11.4204 0.902527 0.817566 11.6917 0.817566 25C0.817566 38.3079 11.4204 49.0975 24.4994 49.0975C37.5788 49.0975 48.182 38.3079 48.182 25C48.182 11.6917 37.5788 0.902527 24.4994 0.902527ZM37.7602 30.4296C37.7602 32.2821 36.2844 33.7838 34.4642 33.7838C34.4642 33.7838 31.649 34.2004 24.3376 34.2004C16.9841 34.2004 14.399 33.7838 14.399 33.7838C12.5784 33.7838 11.1022 32.2821 11.1022 30.4296V19.3617C11.1022 17.5096 12.578 16.0075 14.399 16.0075C14.399 16.0075 16.9841 15.5909 24.3294 15.5909C31.649 15.5909 34.4642 16.0075 34.4642 16.0075C36.2844 16.0075 37.7602 17.5092 37.7602 19.3617V30.4296Z" fill="#E5DCA1"/>
<path d="M20.3959 30.2067L29.3858 24.9254L20.3959 19.6442V30.2067Z" fill="#E5DCA1"/>
</svg>
